<svg xmlns="http://www.w3.org/2000/svg" xmlns:xlink="http://www.w3.org/1999/xlink" width="368" zoomAndPan="magnify" viewBox="0 0 276 130.499996" height="174" preserveAspectRatio="xMidYMid meet" version="1.0"><defs><g/><clipPath id="a5635c44b3"><path d="M 78.097656 0 L 197.636719 0 L 197.636719 79.195312 L 78.097656 79.195312 Z M 78.097656 0 " clip-rule="nonzero"/></clipPath></defs><g fill="#ebcc90" fill-opacity="1"><g transform="translate(11.090308, 112.605995)"><g><path d="M 10.5 0.21875 C 8.25 0.21875 6.414062 -0.0859375 5 -0.703125 C 3.582031 -1.328125 2.535156 -2.226562 1.859375 -3.40625 C 1.191406 -4.59375 0.859375 -6.019531 0.859375 -7.6875 C 0.859375 -9.351562 1.191406 -10.773438 1.859375 -11.953125 C 2.535156 -13.128906 3.582031 -14.019531 5 -14.625 C 6.414062 -15.238281 8.25 -15.546875 10.5 -15.546875 C 13.550781 -15.546875 15.851562 -14.96875 17.40625 -13.8125 C 18.957031 -12.664062 19.835938 -11.023438 20.046875 -8.890625 L 16.5625 -8.890625 C 16.375 -10.253906 15.753906 -11.21875 14.703125 -11.78125 C 13.660156 -12.351562 12.257812 -12.640625 10.5 -12.640625 C 8.414062 -12.640625 6.863281 -12.253906 5.84375 -11.484375 C 4.820312 -10.722656 4.3125 -9.457031 4.3125 -7.6875 C 4.3125 -5.914062 4.820312 -4.640625 5.84375 -3.859375 C 6.863281 -3.078125 8.414062 -2.6875 10.5 -2.6875 C 12.25 -2.6875 13.648438 -2.972656 14.703125 -3.546875 C 15.753906 -4.128906 16.375 -5.109375 16.5625 -6.484375 L 20.0625 -6.484375 C 19.84375 -4.335938 18.957031 -2.679688 17.40625 -1.515625 C 15.851562 -0.359375 13.550781 0.21875 10.5 0.21875 Z M 10.5 0.21875 "/></g></g></g><g fill="#ebcc90" fill-opacity="1"><g transform="translate(32.01639, 112.605995)"><g><path d="M 10.71875 0.21875 C 7.34375 0.21875 4.890625 -0.429688 3.359375 -1.734375 C 1.835938 -3.035156 1.078125 -5.019531 1.078125 -7.6875 L 1.078125 -15.328125 L 4.53125 -15.328125 L 4.53125 -7.6875 C 4.53125 -7.113281 4.59375 -6.535156 4.71875 -5.953125 C 4.84375 -5.367188 5.109375 -4.828125 5.515625 -4.328125 C 5.929688 -3.835938 6.550781 -3.441406 7.375 -3.140625 C 8.195312 -2.835938 9.3125 -2.6875 10.71875 -2.6875 C 12.113281 -2.6875 13.222656 -2.835938 14.046875 -3.140625 C 14.878906 -3.453125 15.5 -3.851562 15.90625 -4.34375 C 16.3125 -4.832031 16.578125 -5.367188 16.703125 -5.953125 C 16.828125 -6.535156 16.890625 -7.113281 16.890625 -7.6875 L 16.890625 -15.328125 L 20.34375 -15.328125 L 20.34375 -7.6875 C 20.34375 -5.03125 19.578125 -3.046875 18.046875 -1.734375 C 16.515625 -0.429688 14.070312 0.21875 10.71875 0.21875 Z M 10.71875 0.21875 "/></g></g></g><g fill="#ebcc90" fill-opacity="1"><g transform="translate(53.44645, 112.605995)"><g><path d="M 1.078125 0 L 1.078125 -15.328125 L 4.53125 -15.328125 L 4.53125 -2.90625 L 16.84375 -2.90625 L 16.84375 0 Z M 1.078125 0 "/></g></g></g><g fill="#ebcc90" fill-opacity="1"><g transform="translate(71.151448, 112.605995)"><g><path d="M 8.546875 0 L 8.546875 -12.421875 L 0.859375 -12.421875 L 0.859375 -15.328125 L 19.6875 -15.328125 L 19.6875 -12.421875 L 12 -12.421875 L 12 0 Z M 8.546875 0 "/></g></g></g><g fill="#ebcc90" fill-opacity="1"><g transform="translate(91.705022, 112.605995)"><g><path d="M 10.71875 0.21875 C 7.34375 0.21875 4.890625 -0.429688 3.359375 -1.734375 C 1.835938 -3.035156 1.078125 -5.019531 1.078125 -7.6875 L 1.078125 -15.328125 L 4.53125 -15.328125 L 4.53125 -7.6875 C 4.53125 -7.113281 4.59375 -6.535156 4.71875 -5.953125 C 4.84375 -5.367188 5.109375 -4.828125 5.515625 -4.328125 C 5.929688 -3.835938 6.550781 -3.441406 7.375 -3.140625 C 8.195312 -2.835938 9.3125 -2.6875 10.71875 -2.6875 C 12.113281 -2.6875 13.222656 -2.835938 14.046875 -3.140625 C 14.878906 -3.453125 15.5 -3.851562 15.90625 -4.34375 C 16.3125 -4.832031 16.578125 -5.367188 16.703125 -5.953125 C 16.828125 -6.535156 16.890625 -7.113281 16.890625 -7.6875 L 16.890625 -15.328125 L 20.34375 -15.328125 L 20.34375 -7.6875 C 20.34375 -5.03125 19.578125 -3.046875 18.046875 -1.734375 C 16.515625 -0.429688 14.070312 0.21875 10.71875 0.21875 Z M 10.71875 0.21875 "/></g></g></g><g fill="#ebcc90" fill-opacity="1"><g transform="translate(113.135082, 112.605995)"><g><path d="M 1.078125 0 L 1.078125 -15.328125 L 13.125 -15.328125 C 14.289062 -15.328125 15.3125 -15.101562 16.1875 -14.65625 C 17.0625 -14.21875 17.75 -13.582031 18.25 -12.75 C 18.75 -11.914062 19 -10.929688 19 -9.796875 C 19 -8.503906 18.679688 -7.414062 18.046875 -6.53125 C 17.421875 -5.65625 16.566406 -5.023438 15.484375 -4.640625 L 18.359375 0 L 14.28125 0 L 11.703125 -4.234375 L 4.53125 -4.234375 L 4.53125 0 Z M 4.53125 -7.140625 L 12.03125 -7.140625 C 12.363281 -7.140625 12.726562 -7.15625 13.125 -7.1875 C 13.53125 -7.21875 13.914062 -7.3125 14.28125 -7.46875 C 14.644531 -7.632812 14.941406 -7.898438 15.171875 -8.265625 C 15.410156 -8.628906 15.53125 -9.140625 15.53125 -9.796875 C 15.53125 -10.453125 15.410156 -10.957031 15.171875 -11.3125 C 14.941406 -11.664062 14.644531 -11.921875 14.28125 -12.078125 C 13.914062 -12.242188 13.53125 -12.34375 13.125 -12.375 C 12.726562 -12.40625 12.363281 -12.421875 12.03125 -12.421875 L 4.53125 -12.421875 Z M 4.53125 -7.140625 "/></g></g></g><g fill="#ebcc90" fill-opacity="1"><g transform="translate(132.987462, 112.605995)"><g><path d="M 1.078125 0 L 1.078125 -15.328125 L 17.28125 -15.328125 L 17.28125 -12.546875 L 4.53125 -12.546875 L 4.53125 -8.984375 L 17.28125 -8.984375 L 17.28125 -6.359375 L 4.53125 -6.359375 L 4.53125 -2.78125 L 17.28125 -2.78125 L 17.28125 0 Z M 1.078125 0 "/></g></g></g><g fill="#ebcc90" fill-opacity="1"><g transform="translate(151.130703, 112.605995)"><g><path d="M 1.078125 0 L 1.078125 -15.328125 L 12.15625 -15.328125 C 13.164062 -15.328125 14.117188 -15.171875 15.015625 -14.859375 C 15.910156 -14.546875 16.703125 -14.078125 17.390625 -13.453125 C 18.085938 -12.828125 18.640625 -12.03125 19.046875 -11.0625 C 19.453125 -10.09375 19.65625 -8.960938 19.65625 -7.671875 C 19.65625 -6.367188 19.453125 -5.234375 19.046875 -4.265625 C 18.640625 -3.304688 18.085938 -2.507812 17.390625 -1.875 C 16.703125 -1.25 15.910156 -0.78125 15.015625 -0.46875 C 14.117188 -0.15625 13.164062 0 12.15625 0 Z M 4.53125 -2.90625 L 10.71875 -2.90625 C 11.863281 -2.90625 12.84375 -3.023438 13.65625 -3.265625 C 14.476562 -3.515625 15.101562 -3.984375 15.53125 -4.671875 C 15.96875 -5.359375 16.1875 -6.359375 16.1875 -7.671875 C 16.1875 -8.992188 15.96875 -9.992188 15.53125 -10.671875 C 15.101562 -11.359375 14.476562 -11.820312 13.65625 -12.0625 C 12.84375 -12.300781 11.863281 -12.421875 10.71875 -12.421875 L 4.53125 -12.421875 Z M 4.53125 -2.90625 "/></g></g></g><g fill="#ebcc90" fill-opacity="1"><g transform="translate(171.640454, 112.605995)"><g/></g></g><g fill="#ebcc90" fill-opacity="1"><g transform="translate(182.004887, 112.605995)"><g><path d="M 1.078125 0 L 1.078125 -15.328125 L 13.125 -15.328125 C 14.289062 -15.328125 15.3125 -15.101562 16.1875 -14.65625 C 17.0625 -14.21875 17.75 -13.582031 18.25 -12.75 C 18.75 -11.914062 19 -10.929688 19 -9.796875 C 19 -8.648438 18.75 -7.660156 18.25 -6.828125 C 17.75 -6.003906 17.0625 -5.363281 16.1875 -4.90625 C 15.3125 -4.457031 14.289062 -4.234375 13.125 -4.234375 L 4.53125 -4.234375 L 4.53125 0 Z M 4.53125 -7.140625 L 12.03125 -7.140625 C 12.363281 -7.140625 12.726562 -7.15625 13.125 -7.1875 C 13.53125 -7.21875 13.914062 -7.3125 14.28125 -7.46875 C 14.644531 -7.632812 14.941406 -7.898438 15.171875 -8.265625 C 15.410156 -8.628906 15.53125 -9.140625 15.53125 -9.796875 C 15.53125 -10.453125 15.410156 -10.957031 15.171875 -11.3125 C 14.941406 -11.664062 14.644531 -11.921875 14.28125 -12.078125 C 13.914062 -12.242188 13.53125 -12.34375 13.125 -12.375 C 12.726562 -12.40625 12.363281 -12.421875 12.03125 -12.421875 L 4.53125 -12.421875 Z M 4.53125 -7.140625 "/></g></g></g><g fill="#ebcc90" fill-opacity="1"><g transform="translate(201.857267, 112.605995)"><g><path d="M 10.5 0.21875 C 8.25 0.21875 6.414062 -0.0859375 5 -0.703125 C 3.582031 -1.328125 2.535156 -2.226562 1.859375 -3.40625 C 1.191406 -4.59375 0.859375 -6.019531 0.859375 -7.6875 C 0.859375 -9.351562 1.191406 -10.773438 1.859375 -11.953125 C 2.535156 -13.128906 3.582031 -14.019531 5 -14.625 C 6.414062 -15.238281 8.25 -15.546875 10.5 -15.546875 C 12.738281 -15.546875 14.566406 -15.234375 15.984375 -14.609375 C 17.398438 -13.992188 18.441406 -13.101562 19.109375 -11.9375 C 19.785156 -10.769531 20.125 -9.351562 20.125 -7.6875 C 20.125 -6.019531 19.785156 -4.597656 19.109375 -3.421875 C 18.441406 -2.253906 17.398438 -1.351562 15.984375 -0.71875 C 14.566406 -0.09375 12.738281 0.21875 10.5 0.21875 Z M 10.5 -2.6875 C 12.65625 -2.6875 14.222656 -3.078125 15.203125 -3.859375 C 16.179688 -4.640625 16.671875 -5.914062 16.671875 -7.6875 C 16.671875 -9.4375 16.179688 -10.695312 15.203125 -11.46875 C 14.234375 -12.25 12.664062 -12.640625 10.5 -12.640625 C 8.332031 -12.640625 6.757812 -12.253906 5.78125 -11.484375 C 4.800781 -10.722656 4.3125 -9.457031 4.3125 -7.6875 C 4.3125 -5.914062 4.800781 -4.640625 5.78125 -3.859375 C 6.757812 -3.078125 8.332031 -2.6875 10.5 -2.6875 Z M 10.5 -2.6875 "/></g></g></g><g fill="#ebcc90" fill-opacity="1"><g transform="translate(222.849072, 112.605995)"><g><path d="M 10.71875 0.21875 C 7.34375 0.21875 4.890625 -0.429688 3.359375 -1.734375 C 1.835938 -3.035156 1.078125 -5.019531 1.078125 -7.6875 L 1.078125 -15.328125 L 4.53125 -15.328125 L 4.53125 -7.6875 C 4.53125 -7.113281 4.59375 -6.535156 4.71875 -5.953125 C 4.84375 -5.367188 5.109375 -4.828125 5.515625 -4.328125 C 5.929688 -3.835938 6.550781 -3.441406 7.375 -3.140625 C 8.195312 -2.835938 9.3125 -2.6875 10.71875 -2.6875 C 12.113281 -2.6875 13.222656 -2.835938 14.046875 -3.140625 C 14.878906 -3.453125 15.5 -3.851562 15.90625 -4.34375 C 16.3125 -4.832031 16.578125 -5.367188 16.703125 -5.953125 C 16.828125 -6.535156 16.890625 -7.113281 16.890625 -7.6875 L 16.890625 -15.328125 L 20.34375 -15.328125 L 20.34375 -7.6875 C 20.34375 -5.03125 19.578125 -3.046875 18.046875 -1.734375 C 16.515625 -0.429688 14.070312 0.21875 10.71875 0.21875 Z M 10.71875 0.21875 "/></g></g></g><g fill="#ebcc90" fill-opacity="1"><g transform="translate(244.279154, 112.605995)"><g><path d="M 1.078125 0 L 1.078125 -15.328125 L 13.125 -15.328125 C 14.289062 -15.328125 15.3125 -15.101562 16.1875 -14.65625 C 17.0625 -14.21875 17.75 -13.582031 18.25 -12.75 C 18.75 -11.914062 19 -10.929688 19 -9.796875 C 19 -8.503906 18.679688 -7.414062 18.046875 -6.53125 C 17.421875 -5.65625 16.566406 -5.023438 15.484375 -4.640625 L 18.359375 0 L 14.28125 0 L 11.703125 -4.234375 L 4.53125 -4.234375 L 4.53125 0 Z M 4.53125 -7.140625 L 12.03125 -7.140625 C 12.363281 -7.140625 12.726562 -7.15625 13.125 -7.1875 C 13.53125 -7.21875 13.914062 -7.3125 14.28125 -7.46875 C 14.644531 -7.632812 14.941406 -7.898438 15.171875 -8.265625 C 15.410156 -8.628906 15.53125 -9.140625 15.53125 -9.796875 C 15.53125 -10.453125 15.410156 -10.957031 15.171875 -11.3125 C 14.941406 -11.664062 14.644531 -11.921875 14.28125 -12.078125 C 13.914062 -12.242188 13.53125 -12.34375 13.125 -12.375 C 12.726562 -12.40625 12.363281 -12.421875 12.03125 -12.421875 L 4.53125 -12.421875 Z M 4.53125 -7.140625 "/></g></g></g><g clip-path="url(#a5635c44b3)"><path fill="#ebcc90" d="M 195.882812 65.574219 L 168.882812 63.644531 C 168.835938 63.644531 168.792969 63.640625 168.746094 63.640625 L 153.15625 63.640625 L 195.398438 3.03125 C 195.601562 2.734375 195.714844 2.410156 195.738281 2.050781 C 195.761719 1.691406 195.691406 1.355469 195.523438 1.035156 C 195.359375 0.71875 195.121094 0.464844 194.816406 0.28125 C 194.507812 0.09375 194.175781 0 193.816406 0 L 81.964844 0 C 81.605469 0 81.273438 0.09375 80.964844 0.28125 C 80.660156 0.464844 80.421875 0.71875 80.253906 1.035156 C 80.089844 1.355469 80.019531 1.691406 80.039062 2.050781 C 80.0625 2.410156 80.175781 2.734375 80.382812 3.03125 L 122.625 63.640625 L 107.035156 63.640625 C 106.988281 63.640625 106.941406 63.644531 106.898438 63.644531 L 79.898438 65.574219 C 79.65625 65.589844 79.421875 65.652344 79.203125 65.757812 C 78.984375 65.863281 78.789062 66.003906 78.625 66.183594 C 78.457031 66.363281 78.328125 66.5625 78.242188 66.792969 C 78.152344 67.019531 78.105469 67.253906 78.105469 67.496094 L 78.105469 71.355469 C 78.105469 71.609375 78.15625 71.855469 78.253906 72.09375 C 78.351562 72.328125 78.492188 72.535156 78.671875 72.71875 C 78.851562 72.898438 79.0625 73.039062 79.296875 73.136719 C 79.535156 73.234375 79.78125 73.28125 80.035156 73.28125 L 124.390625 73.28125 L 124.390625 77.140625 C 124.390625 77.394531 124.441406 77.640625 124.539062 77.878906 C 124.636719 78.113281 124.773438 78.324219 124.957031 78.503906 C 125.136719 78.683594 125.34375 78.824219 125.582031 78.921875 C 125.816406 79.019531 126.0625 79.066406 126.320312 79.066406 L 149.460938 79.066406 C 149.714844 79.066406 149.960938 79.019531 150.199219 78.921875 C 150.433594 78.824219 150.644531 78.683594 150.824219 78.503906 C 151.003906 78.324219 151.144531 78.113281 151.242188 77.878906 C 151.339844 77.640625 151.390625 77.394531 151.390625 77.140625 L 151.390625 73.28125 L 195.746094 73.28125 C 196 73.28125 196.246094 73.234375 196.484375 73.136719 C 196.71875 73.039062 196.925781 72.898438 197.109375 72.71875 C 197.289062 72.535156 197.429688 72.328125 197.527344 72.09375 C 197.625 71.855469 197.671875 71.609375 197.671875 71.355469 L 197.671875 67.496094 C 197.671875 67.253906 197.628906 67.019531 197.539062 66.792969 C 197.449219 66.5625 197.324219 66.363281 197.15625 66.183594 C 196.988281 66.003906 196.796875 65.863281 196.578125 65.757812 C 196.355469 65.652344 196.125 65.589844 195.882812 65.574219 Z M 85.660156 3.855469 L 144.207031 3.855469 L 138.144531 14.472656 C 138.015625 14.691406 137.9375 14.929688 137.90625 15.183594 C 137.871094 15.4375 137.890625 15.6875 137.957031 15.9375 C 138.023438 16.183594 138.136719 16.40625 138.292969 16.609375 C 138.449219 16.8125 138.640625 16.976562 138.863281 17.101562 C 139.082031 17.230469 139.320312 17.308594 139.574219 17.34375 C 139.828125 17.375 140.078125 17.355469 140.328125 17.289062 C 140.574219 17.222656 140.796875 17.109375 141 16.953125 C 141.203125 16.796875 141.367188 16.605469 141.492188 16.386719 L 148.652344 3.855469 L 190.121094 3.855469 L 148.453125 63.640625 L 135.664062 63.640625 L 162.648438 22.265625 C 162.792969 22.050781 162.886719 21.820312 162.9375 21.566406 C 162.988281 21.3125 162.988281 21.058594 162.9375 20.804688 C 162.886719 20.554688 162.789062 20.320312 162.640625 20.105469 C 162.496094 19.894531 162.316406 19.714844 162.101562 19.574219 C 161.882812 19.433594 161.648438 19.339844 161.394531 19.292969 C 161.140625 19.246094 160.886719 19.25 160.636719 19.304688 C 160.382812 19.359375 160.152344 19.460938 159.941406 19.609375 C 159.730469 19.757812 159.554688 19.941406 159.417969 20.160156 L 131.0625 63.640625 L 127.328125 63.640625 Z M 147.53125 75.210938 L 128.246094 75.210938 L 128.246094 73.28125 L 147.53125 73.28125 Z M 193.816406 69.425781 L 81.964844 69.425781 L 81.964844 69.292969 L 107.105469 67.496094 L 168.675781 67.496094 L 193.816406 69.292969 Z M 193.816406 69.425781 " fill-opacity="1" fill-rule="nonzero"/></g><path fill="#ebcc90" d="M 133.0625 27.253906 C 132.839844 27.125 132.601562 27.046875 132.347656 27.015625 C 132.09375 26.980469 131.84375 27 131.597656 27.066406 C 131.351562 27.132812 131.125 27.246094 130.921875 27.402344 C 130.722656 27.558594 130.558594 27.75 130.429688 27.96875 L 122.714844 41.46875 C 122.589844 41.691406 122.507812 41.929688 122.476562 42.183594 C 122.445312 42.4375 122.460938 42.6875 122.527344 42.933594 C 122.59375 43.183594 122.707031 43.40625 122.863281 43.609375 C 123.019531 43.8125 123.210938 43.976562 123.433594 44.105469 C 123.65625 44.230469 123.894531 44.3125 124.148438 44.34375 C 124.402344 44.375 124.652344 44.355469 124.898438 44.289062 C 125.144531 44.222656 125.371094 44.109375 125.570312 43.953125 C 125.773438 43.796875 125.9375 43.605469 126.066406 43.382812 L 133.777344 29.882812 C 133.90625 29.660156 133.984375 29.425781 134.019531 29.171875 C 134.050781 28.917969 134.03125 28.667969 133.964844 28.421875 C 133.898438 28.171875 133.785156 27.949219 133.628906 27.746094 C 133.472656 27.542969 133.285156 27.378906 133.0625 27.253906 Z M 133.0625 27.253906 " fill-opacity="1" fill-rule="nonzero"/></svg>